<?xml version="1.0" encoding="utf-8"?>
<!-- Generator: Adobe Illustrator 22.1.0, SVG Export Plug-In . SVG Version: 6.00 Build 0)  -->
<svg version="1.1" id="Layer_1" xmlns="http://www.w3.org/2000/svg" xmlns:xlink="http://www.w3.org/1999/xlink" x="0px" y="0px"
	 viewBox="0 0 248.7 68.5" style="enable-background:new 0 0 248.7 68.5;" xml:space="preserve">
<style type="text/css">
	.st0{fill:#4ED8AE;}
	.st1{fill:#FFFFFF;}
</style>
<g>
	<path class="st0" d="M62.7,15.9v3.8H0V0h46.8c4.4,0,8.2,1.6,11.3,4.7C61.2,7.8,62.7,11.5,62.7,15.9z"/>
	<path class="st1" d="M62.7,26.4c0,4.3-1.6,8.1-4.7,11.2c-3.1,3.1-6.9,4.7-11.3,4.7H20.5v26.2H0V26.4H62.7z"/>
	<rect x="68.5" class="st0" width="20.5" height="19.7"/>
	<rect x="68.5" y="26.4" class="st1" width="20.5" height="42.1"/>
	<polygon class="st0" points="117.3,19.7 96.8,19.7 91.8,0 112.4,0 	"/>
	<polygon class="st0" points="156.9,0 152,19.7 131.4,19.7 136.3,0 	"/>
	<polygon class="st1" points="150.3,26.4 139.8,68.5 108.9,68.5 98.4,26.4 119,26.4 124.4,47.9 129.7,26.4 	"/>
	<rect x="159.7" class="st1" width="20.5" height="19.7"/>
	<rect x="159.7" y="26.4" class="st1" width="20.5" height="42.1"/>
	<rect x="186" class="st0" width="62.7" height="19.7"/>
	<rect x="207.1" y="26.4" class="st1" width="20.5" height="42.1"/>
</g>
</svg>
