<?xml version="1.0" encoding="utf-8"?>
<!-- Generator: Adobe Illustrator 22.1.0, SVG Export Plug-In . SVG Version: 6.00 Build 0)  -->
<svg version="1.1" id="Layer_1" xmlns="http://www.w3.org/2000/svg" xmlns:xlink="http://www.w3.org/1999/xlink" x="0px" y="0px"
	 viewBox="0 0 159 76" style="enable-background:new 0 0 159 76;" xml:space="preserve">
<style type="text/css">
	.st0{fill:#4ED8AE;}
	.st1{fill:#FFFFFF;}
</style>
<g>
	<g>
		<path class="st0" d="M102.7,22.4l-6.6,16.3l0,0.1c-2.7-1.5-5-3.7-6.9-6.1c-0.9-1-1.7-2.1-2.4-3.2l2.4-7.2H102.7z"/>
		<path class="st0" d="M118.3,22.4v21c-4.8,0.7-8.8,0.2-10.5-0.1c0,0-1.6-0.4-2.4-0.6V22.4H118.3z"/>
		<path class="st0" d="M130.1,12.9v9.5h-7.4v11.2h7.4v5c6-3.9,10.6-8.9,12.9-15.9v-9.7H130.1z"/>
	</g>
	<g>
		<g>
			<rect x="51.1" y="22.7" class="st1" width="12.9" height="34.6"/>
		</g>
		<g>
			<path class="st1" d="M99.4,40.7l-6.9,16.5H78.8L65.4,22.7H79l6.6,19.7l3.6-9.7c2,2.4,4.2,4.5,6.9,6.1l0-0.1
				C97.2,39.4,98.3,40.1,99.4,40.7z"/>
		</g>
		<g>
			<path class="st1" d="M33.4,21.8c-3.6,0-6.9,1.2-9.7,4.5v-3.6H10.8v47.7h12.9V53.6c2.9,3.3,6.1,4.5,9.7,4.5
				c8.6,0,15.2-6.3,15.2-18.2C48.6,28.1,42,21.8,33.4,21.8z M28.7,47c-3.9,0-7.1-3.2-7.1-7.1s3.2-7,7.1-7c3.9,0,7,3.1,7,7
				S32.6,47,28.7,47z"/>
		</g>
		<g>
			<path class="st1" d="M148,55.8c-1.4,1.2-4.4,2.3-8.8,2.3c-7.6,0-11.9-3.6-11.9-10.9v-6.9c0.9-0.6,1.8-1.2,2.7-1.8v0
				c6-3.9,10.6-8.9,12.9-15.9h4.3v11.2h-7v9.7c0,1.8,1.1,3.2,2.9,3.2c1.1,0,2.3-0.4,2.6-0.7L148,55.8z"/>
		</g>
		<path class="st1" d="M119.8,43.1v14.1H107V43c0,0,5.5,1.2,11.3,0.3C118.8,43.3,119.3,43.2,119.8,43.1z"/>
	</g>
	<circle class="st0" cx="114.4" cy="10.9" r="7.6"/>
</g>
</svg>
